<svg width="100%" viewBox="0 0 1280 720" role="img" xmlns="http://www.w3.org/2000/svg">
<title>SpaceX 系列预告海报 v4 公众号封面（16:9 横版）</title>
<desc>v4 横版定稿。米黄底墨绿主色，左栏主标 + 右栏 6 卡 2 列 3 行布局。用于公众号文章封面。</desc>

<rect x="0" y="0" width="1280" height="720" fill="#F5EFE0"/>

<g transform="translate(60,60)">
<rect x="0" y="0" width="500" height="600" rx="22" fill="#FFFCF5" stroke="#1B4332" stroke-width="2"/>

<rect x="36" y="36" width="16" height="16" rx="3" fill="#E07A2C"/>
<text x="60" y="50" fill="#1B4332" font-family="ui-monospace, monospace" font-size="13" font-weight="500" letter-spacing="3">SPACEX IPO LAB</text>
<text x="464" y="50" fill="#888888" font-family="ui-monospace, monospace" font-size="11" text-anchor="end" letter-spacing="1">谷德禄氪 · 独立研究笔记</text>

<text x="36" y="160" fill="#1B4332" font-family="ui-sans-serif, system-ui" font-size="64" font-weight="700">SpaceX</text>
<text x="36" y="226" fill="#1B4332" font-family="ui-sans-serif, system-ui" font-size="64" font-weight="700">招股书</text>
<text x="36" y="292" fill="#1B4332" font-family="ui-sans-serif, system-ui" font-size="64" font-weight="700">深度系列</text>

<line x1="36" y1="320" x2="200" y2="320" stroke="#E07A2C" stroke-width="3"/>
<text x="36" y="360" fill="#555555" font-family="ui-sans-serif, system-ui" font-size="16">用 600 页 S-1 看 Musk 下一步</text>

<rect x="36" y="395" width="130" height="34" rx="17" fill="#E07A2C"/>
<text x="101" y="416" fill="#FFFCF5" font-family="ui-sans-serif, system-ui" font-size="13" font-weight="500" text-anchor="middle">6 期连载</text>

<rect x="176" y="395" width="150" height="34" rx="17" fill="none" stroke="#6B4E9C" stroke-width="1.5"/>
<text x="251" y="416" fill="#6B4E9C" font-family="ui-sans-serif, system-ui" font-size="13" font-weight="500" text-anchor="middle">含 2 个互动工具</text>

<rect x="336" y="395" width="130" height="34" rx="17" fill="none" stroke="#1B4332" stroke-width="1"/>
<text x="401" y="416" fill="#1B4332" font-family="ui-sans-serif, system-ui" font-size="13" font-weight="500" text-anchor="middle">招股书拆透</text>

<text x="36" y="475" fill="#1B4332" font-family="ui-sans-serif, system-ui" font-size="17" font-weight="700">这个系列写什么</text>
<text x="36" y="500" fill="#555555" font-family="ui-sans-serif, system-ui" font-size="13">现金流 · 盈利模式 · Musk 帝国</text>
<text x="36" y="520" fill="#555555" font-family="ui-sans-serif, system-ui" font-size="13">IPO 决策 · 招股书可视化</text>

<text x="36" y="565" fill="#888888" font-family="ui-monospace, monospace" font-size="11" letter-spacing="2">DATA · SEC SPACEX S-1 (2026-05-20)</text>
</g>

<g transform="translate(620,60)">

<g transform="translate(0,0)">
<rect x="0" y="0" width="290" height="180" rx="14" fill="#E07A2C"/>
<rect x="178" y="14" width="100" height="22" rx="11" fill="#FFFCF5"/>
<text x="228" y="29" fill="#E07A2C" font-family="ui-sans-serif, system-ui" font-size="11" font-weight="700" text-anchor="middle">首发</text>
<text x="18" y="28" fill="#FFFCF5" font-family="ui-monospace, monospace" font-size="11" font-weight="700" letter-spacing="2">EP1 · 5/25</text>
<text x="18" y="78" fill="#FFFCF5" font-family="ui-sans-serif, system-ui" font-size="18" font-weight="700">融资 100 亿做完火箭</text>
<text x="18" y="103" fill="#FFFCF5" font-family="ui-sans-serif, system-ui" font-size="18" font-weight="700">下一步砸 AI</text>
<text x="18" y="145" fill="#FFEAD2" font-family="ui-sans-serif, system-ui" font-size="12">2026 Q1：76% 资本开支</text>
<text x="18" y="163" fill="#FFEAD2" font-family="ui-sans-serif, system-ui" font-size="12">已流向 GPU</text>
</g>

<g transform="translate(310,0)">
<rect x="0" y="0" width="290" height="180" rx="14" fill="#FFFCF5" stroke="#1B4332" stroke-width="1.5"/>
<rect x="178" y="14" width="100" height="22" rx="11" fill="#1B4332"/>
<text x="228" y="29" fill="#FFFCF5" font-family="ui-sans-serif, system-ui" font-size="11" font-weight="700" text-anchor="middle">分部建模</text>
<text x="18" y="28" fill="#1B4332" font-family="ui-monospace, monospace" font-size="11" font-weight="700" letter-spacing="2">EP2 · 5/29</text>
<text x="18" y="78" fill="#1B4332" font-family="ui-sans-serif, system-ui" font-size="18" font-weight="700">SpaceX 三本账</text>
<text x="18" y="103" fill="#1B4332" font-family="ui-sans-serif, system-ui" font-size="18" font-weight="700">谁在赚谁在烧</text>
<text x="18" y="145" fill="#555555" font-family="ui-sans-serif, system-ui" font-size="12">Starlink EBITDA 72 亿</text>
<text x="18" y="163" fill="#555555" font-family="ui-sans-serif, system-ui" font-size="12">补贴整个集团</text>
</g>

<g transform="translate(0,200)">
<rect x="0" y="0" width="290" height="180" rx="14" fill="#FFFCF5" stroke="#1B4332" stroke-width="1.5"/>
<rect x="178" y="14" width="100" height="22" rx="11" fill="#6B4E9C"/>
<text x="228" y="29" fill="#FFFCF5" font-family="ui-sans-serif, system-ui" font-size="11" font-weight="700" text-anchor="middle">互动工具</text>
<text x="18" y="28" fill="#1B4332" font-family="ui-monospace, monospace" font-size="11" font-weight="700" letter-spacing="2">EP3 · 6/02</text>
<text x="18" y="78" fill="#1B4332" font-family="ui-sans-serif, system-ui" font-size="18" font-weight="700">火箭单 kg 入轨</text>
<text x="18" y="103" fill="#1B4332" font-family="ui-sans-serif, system-ui" font-size="18" font-weight="700">互动计算器</text>
<text x="18" y="145" fill="#555555" font-family="ui-sans-serif, system-ui" font-size="12">F9 到 Starship</text>
<text x="18" y="163" fill="#555555" font-family="ui-sans-serif, system-ui" font-size="12">复用次数滑块自己调</text>
</g>

<g transform="translate(310,200)">
<rect x="0" y="0" width="290" height="180" rx="14" fill="#FFFCF5" stroke="#1B4332" stroke-width="1.5"/>
<rect x="178" y="14" width="100" height="22" rx="11" fill="#E07A2C"/>
<text x="228" y="29" fill="#FFFCF5" font-family="ui-sans-serif, system-ui" font-size="11" font-weight="700" text-anchor="middle">独家推演</text>
<text x="18" y="28" fill="#1B4332" font-family="ui-monospace, monospace" font-size="11" font-weight="700" letter-spacing="2">EP4 · 6/06</text>
<text x="18" y="78" fill="#1B4332" font-family="ui-sans-serif, system-ui" font-size="18" font-weight="700">Musk 帝国拆解</text>
<text x="18" y="103" fill="#1B4332" font-family="ui-sans-serif, system-ui" font-size="18" font-weight="700">反向合并 Tesla</text>
<text x="18" y="145" fill="#555555" font-family="ui-sans-serif, system-ui" font-size="12">SpaceX 估值反超 Tesla</text>
<text x="18" y="163" fill="#555555" font-family="ui-sans-serif, system-ui" font-size="12">下一步合股？</text>
</g>

<g transform="translate(0,400)">
<rect x="0" y="0" width="290" height="180" rx="14" fill="#FFFCF5" stroke="#1B4332" stroke-width="1.5"/>
<rect x="178" y="14" width="100" height="22" rx="11" fill="#1B4332"/>
<text x="228" y="29" fill="#FFFCF5" font-family="ui-sans-serif, system-ui" font-size="11" font-weight="700" text-anchor="middle">投资决策</text>
<text x="18" y="28" fill="#1B4332" font-family="ui-monospace, monospace" font-size="11" font-weight="700" letter-spacing="2">番外 · 6/12</text>
<text x="18" y="78" fill="#1B4332" font-family="ui-sans-serif, system-ui" font-size="18" font-weight="700">想买 SpaceX</text>
<text x="18" y="103" fill="#1B4332" font-family="ui-sans-serif, system-ui" font-size="18" font-weight="700">又怕 IPO 坑？</text>
<text x="18" y="145" fill="#555555" font-family="ui-sans-serif, system-ui" font-size="12">美股 IPO 5 年中位回报</text>
<text x="18" y="163" fill="#555555" font-family="ui-sans-serif, system-ui" font-size="12">跑输 QQQ 3.4%/年</text>
</g>

<g transform="translate(310,400)">
<rect x="0" y="0" width="290" height="180" rx="14" fill="#6B4E9C"/>
<rect x="178" y="14" width="100" height="22" rx="11" fill="#FFFCF5"/>
<text x="228" y="29" fill="#6B4E9C" font-family="ui-sans-serif, system-ui" font-size="11" font-weight="700" text-anchor="middle">压轴</text>
<text x="18" y="28" fill="#E8DAF5" font-family="ui-monospace, monospace" font-size="11" font-weight="700" letter-spacing="2">EP5 · 6/20+</text>
<text x="18" y="78" fill="#FFFCF5" font-family="ui-sans-serif, system-ui" font-size="18" font-weight="700">600 页招股书</text>
<text x="18" y="103" fill="#FFFCF5" font-family="ui-sans-serif, system-ui" font-size="18" font-weight="700">AI 拆成一张图</text>
<text x="18" y="145" fill="#D9C5EE" font-family="ui-sans-serif, system-ui" font-size="12">压轴可视化 Deck</text>
<text x="18" y="163" fill="#D9C5EE" font-family="ui-sans-serif, system-ui" font-size="12">可点开看</text>
</g>

</g>

</svg>
